Coordinates
version=1
nRows=7
nColumns=40
inDegrees=yes

Units are S.I. units (second, meters, Newtons, ...)
Angles are in degrees.

endheader
time	pelvis_tilt	pelvis_list	pelvis_rotation	pelvis_tx	pelvis_ty	pelvis_tz	hip_flexion_r	hip_adduction_r	hip_rotation_r	knee_angle_r	knee_angle_r_beta	ankle_angle_r	subtalar_angle_r	mtp_angle_r	hip_flexion_l	hip_adduction_l	hip_rotation_l	knee_angle_l	knee_angle_l_beta	ankle_angle_l	subtalar_angle_l	mtp_angle_l	lumbar_extension	lumbar_bending	lumbar_rotation	arm_flex_r	arm_add_r	arm_rot_r	elbow_flex_r	pro_sup_r	wrist_flex_r	wrist_dev_r	arm_flex_l	arm_add_l	arm_rot_l	elbow_flex_l	pro_sup_l	wrist_flex_l	wrist_dev_l
     48.78928571	     -7.25500937	     -4.03469781	     -2.13970815	      0.90454897	      0.93249414	      0.43509984	     38.98536530	     -6.20377491	     -8.38194986	     62.47152181	     62.47152181	      3.01322313	     -9.76395735	     -1.76767948	     13.77496982	     -4.80287941	    -13.17507706	     17.34893335	     17.34893335	     14.76175261	      1.67554216	     -3.17376197	    -11.01801489	      1.98792950	      2.01294706	     -4.71489643	    -13.77992436	     -1.20768544	     35.67244259	     46.54670279	      0.00000000	      0.00000000	     25.97766085	    -19.92511887	      4.00682887	     53.11891420	     46.59743406	      0.00000000	      0.00000000
     48.80107143	     -7.18630884	     -4.01095621	     -2.16154788	      0.90380221	      0.93243535	      0.43505619	     39.35087657	     -5.87765468	     -8.27445660	     59.85577496	     59.85577496	      2.90406577	     -9.49089507	     -1.43255662	     12.95064811	     -4.70751010	    -13.20810931	     16.94649722	     16.94649722	     15.07449065	      1.86849825	     -3.32370390	    -11.13100945	      2.05753328	      2.16869855	     -6.24626507	    -13.87368249	     -1.67587511	     33.35593663	     46.64619741	      0.00000000	      0.00000000	     27.03754177	    -20.00609198	      3.68458242	     55.33875508	     46.66571340	      0.00000000	      0.00000000
     48.81285714	     -7.14219839	     -3.88074766	     -2.18990013	      0.90309605	      0.93218417	      0.43505002	     39.63704348	     -5.63603776	     -8.10014758	     57.01990222	     57.01990222	      2.82836920	     -9.14229942	     -1.19640909	     12.16927515	     -4.51157288	    -13.32111582	     16.57930178	     16.57930178	     15.36513879	      2.09679064	     -3.53681571	    -11.23316407	      1.97458776	      2.21675681	     -7.53165648	    -13.83397146	     -2.39807109	     30.79991379	     46.77424808	      0.00000000	      0.00000000	     27.79803944	    -20.23330006	      3.23851093	     58.29787314	     46.75366546	      0.00000000	      0.00000000
     48.82464286	     -7.16855137	     -3.80240463	     -2.16307837	      0.90247773	      0.93181044	      0.43513702	     39.77020058	     -5.36123754	     -8.06109374	     53.80571385	     53.80571385	      2.55612975	     -8.80557589	     -1.45656549	     11.45330059	     -4.36601110	    -13.34626414	     16.17765421	     16.17765421	     15.58514013	      2.30301765	     -3.88893355	    -11.23756501	      1.96261897	      1.10775474	     -7.34784475	    -13.44307317	     -4.98476686	     26.85646756	     47.07155440	      0.00000000	      0.00000000	     26.99188074	    -21.35946523	      1.74687285	     63.05156999	     46.96308983	      0.00000000	      0.00000000
     48.83642857	     -7.11351279	     -3.67241417	     -2.17389154	      0.90204174	      0.93146608	      0.43530190	     39.67517878	     -5.11424294	     -7.99252833	     50.38505391	     50.38505391	      2.49436319	     -8.21324964	     -1.11579612	     10.61350231	     -4.16489659	    -13.43398452	     15.75615283	     15.75615283	     15.91213605	      2.52482199	     -3.97052713	    -11.32494812	      1.90199744	      1.48875943	     -9.13513925	    -13.62203038	     -5.27953701	     25.85372910	     47.10841683	      0.00000000	      0.00000000	     28.08699330	    -21.07289859	      1.38793107	     65.26154314	     47.03762446	      0.00000000	      0.00000000
     48.84821429	     -7.08002829	     -3.58287609	     -2.14338253	      0.90176833	      0.93099177	      0.43543077	     39.37007083	     -4.84956663	     -8.05445779	     46.66071425	     46.66071425	      2.49499320	     -7.52690315	     -0.73060322	      9.79858800	     -3.99886347	    -13.42848984	     15.34573241	     15.34573241	     16.25792078	      2.76287575	     -4.08124554	    -11.35319856	      1.93557207	      1.63558025	    -10.69560828	    -13.84297546	     -5.51806320	     25.14966834	     47.13488142	      0.00000000	      0.00000000	     28.80689434	    -21.01071694	      1.10232409	     67.46142964	     47.10127450	      0.00000000	      0.00000000
     48.86000000	     -7.00990335	     -3.44073996	     -2.11621615	      0.90169362	      0.93039109	      0.43569312	     38.86774293	     -4.62867184	     -8.16231720	     42.76900919	     42.76900919	      2.47657146	     -6.69179879	     -0.34497155	      8.88599776	     -3.77685932	    -13.50390550	     14.85254217	     14.85254217	     16.60746446	      3.04010629	     -4.19742432	    -11.44503629	      1.85967145	      1.82809809	    -12.27975411	    -14.01058744	     -5.79953666	     24.56984187	     47.15909143	      0.00000000	      0.00000000	     29.29777810	    -20.89647475	      0.79116365	     70.42215419	     47.18134184	      0.00000000	      0.00000000
